<svg width="32" height="32" viewBox="0 0 32 32" fill="none" xmlns="http://www.w3.org/2000/svg">
<g clip-path="url(#clip0_188_54)">
<rect x="1" y="1" width="30" height="30" fill="white" stroke="black" stroke-width="2"/>
<path d="M19.2969 22.1953C18.5026 22.1953 17.8516 22.026 17.3438 21.6875C16.8359 21.3424 16.4486 20.8281 16.1816 20.1445H16.084C15.7845 20.8607 15.3809 21.3815 14.873 21.707C14.3717 22.0326 13.7337 22.1953 12.959 22.1953C11.5658 22.1953 10.485 21.7038 9.7168 20.7207C8.94857 19.7376 8.56445 18.3965 8.56445 16.6973C8.56445 15.6947 8.64258 14.7702 8.79883 13.9238C8.95508 13.0775 9.24154 12.1302 9.6582 11.082H12.5195C11.7057 12.7878 11.2988 14.627 11.2988 16.5996C11.2988 17.6673 11.4583 18.4811 11.7773 19.041C12.1029 19.6009 12.5781 19.8809 13.2031 19.8809C13.7435 19.8809 14.1374 19.6921 14.3848 19.3145C14.6322 18.9368 14.7559 18.3118 14.7559 17.4395V14.5586H17.5V17.4395C17.5 18.3184 17.6237 18.9466 17.8711 19.3242C18.1185 19.6953 18.5156 19.8809 19.0625 19.8809C19.6745 19.8809 20.1432 19.6074 20.4688 19.0605C20.7943 18.5072 20.957 17.6999 20.957 16.6387C20.957 14.64 20.5501 12.7878 19.7363 11.082H22.5977C23.0143 12.1367 23.3008 13.084 23.457 13.9238C23.6198 14.7637 23.7012 15.6882 23.7012 16.6973C23.7012 18.4095 23.3138 19.7539 22.5391 20.7305C21.7643 21.707 20.6836 22.1953 19.2969 22.1953Z" fill="black"/>
</g>
<defs>
<clipPath id="clip0_188_54">
<rect width="32" height="32" fill="white"/>
</clipPath>
</defs>
</svg>
